Start testing: Jun 06 12:58 CEST
----------------------------------------------------------
1/6 Testing: bitOrEncrypt and bitOrDecrypt
1/6 Test: bitOrEncrypt and bitOrDecrypt
Command: "/home/vind/auto_edit_project/test/auto_edit_tests" "bitOrEncrypt and bitOrDecrypt"
Directory: /home/vind/auto_edit_project/test
"bitOrEncrypt and bitOrDecrypt" start time: Jun 06 12:58 CEST
Output:
----------------------------------------------------------
Filters: "bitOrEncrypt and bitOrDecrypt"
Randomness seeded to: 3848729366
===============================================================================
All tests passed (2 assertions in 1 test case)

<end of output>
Test time =   0.00 sec
----------------------------------------------------------
Test Passed.
"bitOrEncrypt and bitOrDecrypt" end time: Jun 06 12:58 CEST
"bitOrEncrypt and bitOrDecrypt" time elapsed: 00:00:00
----------------------------------------------------------

2/6 Testing: bitOrEncrypt and bitOrDecrypt with empty value
2/6 Test: bitOrEncrypt and bitOrDecrypt with empty value
Command: "/home/vind/auto_edit_project/test/auto_edit_tests" "bitOrEncrypt and bitOrDecrypt with empty value"
Directory: /home/vind/auto_edit_project/test
"bitOrEncrypt and bitOrDecrypt with empty value" start time: Jun 06 12:58 CEST
Output:
----------------------------------------------------------
Filters: "bitOrEncrypt and bitOrDecrypt with empty value"
Randomness seeded to: 2072019168
===============================================================================
All tests passed (2 assertions in 1 test case)

<end of output>
Test time =   0.00 sec
----------------------------------------------------------
Test Passed.
"bitOrEncrypt and bitOrDecrypt with empty value" end time: Jun 06 12:58 CEST
"bitOrEncrypt and bitOrDecrypt with empty value" time elapsed: 00:00:00
----------------------------------------------------------

3/6 Testing: bitOrEncrypt and bitOrDecrypt with empty encryption key
3/6 Test: bitOrEncrypt and bitOrDecrypt with empty encryption key
Command: "/home/vind/auto_edit_project/test/auto_edit_tests" "bitOrEncrypt and bitOrDecrypt with empty encryption key"
Directory: /home/vind/auto_edit_project/test
"bitOrEncrypt and bitOrDecrypt with empty encryption key" start time: Jun 06 12:58 CEST
Output:
----------------------------------------------------------
Filters: "bitOrEncrypt and bitOrDecrypt with empty encryption key"
Randomness seeded to: 2771070676
===============================================================================
All tests passed (2 assertions in 1 test case)

<end of output>
Test time =   0.00 sec
----------------------------------------------------------
Test Passed.
"bitOrEncrypt and bitOrDecrypt with empty encryption key" end time: Jun 06 12:58 CEST
"bitOrEncrypt and bitOrDecrypt with empty encryption key" time elapsed: 00:00:00
----------------------------------------------------------

4/6 Testing: VideoEditor trims and appends videos correctly
4/6 Test: VideoEditor trims and appends videos correctly
Command: "/home/vind/auto_edit_project/test/auto_edit_tests" "VideoEditor trims and appends videos correctly"
Directory: /home/vind/auto_edit_project/test
"VideoEditor trims and appends videos correctly" start time: Jun 06 12:58 CEST
Output:
----------------------------------------------------------
ffmpeg version 4.4.2-0ubuntu0.22.04.1 Copyright (c) 2000-2021 the FFmpeg developers
  built with gcc 11 (Ubuntu 11.2.0-19ubuntu1)
  configuration: --prefix=/usr --extra-version=0ubuntu0.22.04.1 --toolchain=hardened --libdir=/usr/lib/x86_64-linux-gnu --incdir=/usr/include/x86_64-linux-gnu --arch=amd64 --enable-gpl --disable-stripping --enable-gnutls --enable-ladspa --enable-libaom --enable-libass --enable-libbluray --enable-libbs2b --enable-libcaca --enable-libcdio --enable-libcodec2 --enable-libdav1d --enable-libflite --enable-libfontconfig --enable-libfreetype --enable-libfribidi --enable-libgme --enable-libgsm --enable-libjack --enable-libmp3lame --enable-libmysofa --enable-libopenjpeg --enable-libopenmpt --enable-libopus --enable-libpulse --enable-librabbitmq --enable-librubberband --enable-libshine --enable-libsnappy --enable-libsoxr --enable-libspeex --enable-libsrt --enable-libssh --enable-libtheora --enable-libtwolame --enable-libvidstab --enable-libvorbis --enable-libvpx --enable-libwebp --enable-libx265 --enable-libxml2 --enable-libxvid --enable-libzimg --enable-libzmq --enable-libzvbi --enable-lv2 --enable-omx --enable-openal --enable-opencl --enable-opengl --enable-sdl2 --enable-pocketsphinx --enable-librsvg --enable-libmfx --enable-libdc1394 --enable-libdrm --enable-libiec61883 --enable-chromaprint --enable-frei0r --enable-libx264 --enable-shared
  libavutil      56. 70.100 / 56. 70.100
  libavcodec     58.134.100 / 58.134.100
  libavformat    58. 76.100 / 58. 76.100
  libavdevice    58. 13.100 / 58. 13.100
  libavfilter     7.110.100 /  7.110.100
  libswscale      5.  9.100 /  5.  9.100
  libswresample   3.  9.100 /  3.  9.100
  libpostproc    55.  9.100 / 55.  9.100
Input #0, mov,mp4,m4a,3gp,3g2,mj2, from '/home/vind/auto_edit_project/test/unit/test_videos/example1.mp4':
  Metadata:
    major_brand     : isom
    minor_version   : 512
    compatible_brands: isomiso2avc1mp41
    encoder         : Lavf58.76.100
  Duration: 00:00:02.01, start: 0.000000, bitrate: 336 kb/s
  Stream #0:0(und): Video: h264 (Main) (avc1 / 0x31637661), yuv420p, 480x270 [SAR 1:1 DAR 16:9], 260 kb/s, 30 fps, 30 tbr, 30k tbn, 60 tbc (default)
    Metadata:
      handler_name    : VideoHandler
      vendor_id       : [0][0][0][0]
  Stream #0:1(und): Audio: aac (LC) (mp4a / 0x6134706D), 48000 Hz, stereo, fltp, 64 kb/s (default)
    Metadata:
      handler_name    : SoundHandler
      vendor_id       : [0][0][0][0]
Output #0, mp4, to '/home/vind/auto_edit_project/test/unit/test_videos/temp_example1.mp4':
  Metadata:
    major_brand     : isom
    minor_version   : 512
    compatible_brands: isomiso2avc1mp41
    encoder         : Lavf58.76.100
  Stream #0:0(und): Video: h264 (Main) (avc1 / 0x31637661), yuv420p, 480x270 [SAR 1:1 DAR 16:9], q=2-31, 260 kb/s, 30 fps, 30 tbr, 30k tbn, 30k tbc (default)
    Metadata:
      handler_name    : VideoHandler
      vendor_id       : [0][0][0][0]
  Stream #0:1(und): Audio: aac (LC) (mp4a / 0x6134706D), 48000 Hz, stereo, fltp, 64 kb/s (default)
    Metadata:
      handler_name    : SoundHandler
      vendor_id       : [0][0][0][0]
Stream mapping:
  Stream #0:0 -> #0:0 (copy)
  Stream #0:1 -> #0:1 (copy)
Press [q] to stop, [?] for help
frame=    1 fps=0.0 q=-1.0 size=       0kB time=00:00:00.00 bitrate=11636.4kbits/s speed=N/A    frame=   60 fps=0.0 q=-1.0 Lsize=      82kB time=00:00:01.98 bitrate= 340.3kbits/s speed=3.47e+03x    
video:64kB audio:16kB subtitle:0kB other streams:0kB global headers:0kB muxing overhead: 3.824296%
ffmpeg version 4.4.2-0ubuntu0.22.04.1 Copyright (c) 2000-2021 the FFmpeg developers
  built with gcc 11 (Ubuntu 11.2.0-19ubuntu1)
  configuration: --prefix=/usr --extra-version=0ubuntu0.22.04.1 --toolchain=hardened --libdir=/usr/lib/x86_64-linux-gnu --incdir=/usr/include/x86_64-linux-gnu --arch=amd64 --enable-gpl --disable-stripping --enable-gnutls --enable-ladspa --enable-libaom --enable-libass --enable-libbluray --enable-libbs2b --enable-libcaca --enable-libcdio --enable-libcodec2 --enable-libdav1d --enable-libflite --enable-libfontconfig --enable-libfreetype --enable-libfribidi --enable-libgme --enable-libgsm --enable-libjack --enable-libmp3lame --enable-libmysofa --enable-libopenjpeg --enable-libopenmpt --enable-libopus --enable-libpulse --enable-librabbitmq --enable-librubberband --enable-libshine --enable-libsnappy --enable-libsoxr --enable-libspeex --enable-libsrt --enable-libssh --enable-libtheora --enable-libtwolame --enable-libvidstab --enable-libvorbis --enable-libvpx --enable-libwebp --enable-libx265 --enable-libxml2 --enable-libxvid --enable-libzimg --enable-libzmq --enable-libzvbi --enable-lv2 --enable-omx --enable-openal --enable-opencl --enable-opengl --enable-sdl2 --enable-pocketsphinx --enable-librsvg --enable-libmfx --enable-libdc1394 --enable-libdrm --enable-libiec61883 --enable-chromaprint --enable-frei0r --enable-libx264 --enable-shared
  libavutil      56. 70.100 / 56. 70.100
  libavcodec     58.134.100 / 58.134.100
  libavformat    58. 76.100 / 58. 76.100
  libavdevice    58. 13.100 / 58. 13.100
  libavfilter     7.110.100 /  7.110.100
  libswscale      5.  9.100 /  5.  9.100
  libswresample   3.  9.100 /  3.  9.100
  libpostproc    55.  9.100 / 55.  9.100
[mov,mp4,m4a,3gp,3g2,mj2 @ 0x561569e6c180] Auto-inserting h264_mp4toannexb bitstream filter
Input #0, concat, from 'list.txt':
  Duration: N/A, start: 0.000000, bitrate: 325 kb/s
  Stream #0:0(und): Video: h264 (Main) (avc1 / 0x31637661), yuv420p, 480x270 [SAR 1:1 DAR 16:9], 260 kb/s, 30 fps, 30 tbr, 30k tbn, 60 tbc
    Metadata:
      handler_name    : VideoHandler
      vendor_id       : [0][0][0][0]
  Stream #0:1(und): Audio: aac (LC) (mp4a / 0x6134706D), 48000 Hz, stereo, fltp, 64 kb/s
    Metadata:
      handler_name    : SoundHandler
      vendor_id       : [0][0][0][0]
Output #0, mp4, to '/home/vind/auto_edit_project/test/unit/test_videos/output.mp4':
  Metadata:
    encoder         : Lavf58.76.100
  Stream #0:0(und): Video: h264 (Main) (avc1 / 0x31637661), yuv420p, 480x270 [SAR 1:1 DAR 16:9], q=2-31, 260 kb/s, 30 fps, 30 tbr, 30k tbn, 30k tbc
    Metadata:
      handler_name    : VideoHandler
      vendor_id       : [0][0][0][0]
  Stream #0:1(und): Audio: aac (LC) (mp4a / 0x6134706D), 48000 Hz, stereo, fltp, 64 kb/s
    Metadata:
      handler_name    : SoundHandler
      vendor_id       : [0][0][0][0]
Stream mapping:
  Stream #0:0 -> #0:0 (copy)
  Stream #0:1 -> #0:1 (copy)
Press [q] to stop, [?] for help
frame=    1 fps=0.0 q=-1.0 size=       0kB time=00:00:00.00 bitrate=11636.4kbits/s speed=N/A    [mov,mp4,m4a,3gp,3g2,mj2 @ 0x561569e9c680] Auto-inserting h264_mp4toannexb bitstream filter
frame=  123 fps=0.0 q=-1.0 Lsize=     163kB time=00:00:04.05 bitrate= 330.0kbits/s speed= 615x    
video:126kB audio:32kB subtitle:0kB other streams:0kB global headers:0kB muxing overhead: 3.130840%
Filters: "VideoEditor trims and appends videos correctly"
Randomness seeded to: 1230518433
===============================================================================
All tests passed (1 assertion in 1 test case)

<end of output>
Test time =   0.39 sec
----------------------------------------------------------
Test Passed.
"VideoEditor trims and appends videos correctly" end time: Jun 06 12:58 CEST
"VideoEditor trims and appends videos correctly" time elapsed: 00:00:00
----------------------------------------------------------

5/6 Testing: VideoEditor throws an error when trying to trim a video with invalid start or end second
5/6 Test: VideoEditor throws an error when trying to trim a video with invalid start or end second
Command: "/home/vind/auto_edit_project/test/auto_edit_tests" "VideoEditor throws an error when trying to trim a video with invalid start or end second"
Directory: /home/vind/auto_edit_project/test
"VideoEditor throws an error when trying to trim a video with invalid start or end second" start time: Jun 06 12:58 CEST
Output:
----------------------------------------------------------
Filters: "VideoEditor throws an error when trying to trim a video with invalid start or end second"
Randomness seeded to: 2387822088
===============================================================================
All tests passed (3 assertions in 1 test case)

<end of output>
Test time =   0.15 sec
----------------------------------------------------------
Test Passed.
"VideoEditor throws an error when trying to trim a video with invalid start or end second" end time: Jun 06 12:58 CEST
"VideoEditor throws an error when trying to trim a video with invalid start or end second" time elapsed: 00:00:00
----------------------------------------------------------

6/6 Testing: VideoEditor throws an error when trying to append a video that does not exist
6/6 Test: VideoEditor throws an error when trying to append a video that does not exist
Command: "/home/vind/auto_edit_project/test/auto_edit_tests" "VideoEditor throws an error when trying to append a video that does not exist"
Directory: /home/vind/auto_edit_project/test
"VideoEditor throws an error when trying to append a video that does not exist" start time: Jun 06 12:58 CEST
Output:
----------------------------------------------------------
Filters: "VideoEditor throws an error when trying to append a video that does not exist"
Randomness seeded to: 1347187125
===============================================================================
All tests passed (1 assertion in 1 test case)

<end of output>
Test time =   0.00 sec
----------------------------------------------------------
Test Passed.
"VideoEditor throws an error when trying to append a video that does not exist" end time: Jun 06 12:58 CEST
"VideoEditor throws an error when trying to append a video that does not exist" time elapsed: 00:00:00
----------------------------------------------------------

End testing: Jun 06 12:58 CEST
